# xmcd
#
# Track frame offsets:
#	150
#	17107
#	32864
#	51771
#	68578
#	86660
#	102342
#	118999
#	138806
#	154188
#	172795
#	188777
#	204834
#	222016
#	243173
#
# Disc length: 3495 seconds
#
# Revision: 1
# Processed by: cddbd v1.5.2PL0 Copyright (c) Steve Scherf et al.
# Submitted via: audiograbber 1.83.01
#
DISCID=c20da50f
DTITLE=Roger Whittaker - Das Beste von der Stimme des Herzens
DYEAR=1900
DGENRE=
TTITLE0=Bring mir noch einmal die Jahre zurück-R. Whittaker
TTITLE1=Du wirst alle Jahre schöner R. Whittaker
TTITLE2=Sieben Jahre, sieben Meere R. Whittaker
TTITLE3=Leben mit Dir - Roger Whittaker
TTITLE4=Was ist dabei, wenn wir zwei uns lieben R.Whittaker
TTITLE5=Sag, ihr´ - Roger Whittaker
TTITLE6=Salz im Kaffe - Roger Whittaker
TTITLE7=Der Highland-Song - Roger Whittaker
TTITLE8=Die schlechtesten Jungs - R. Whittaker
TTITLE9=2 himmelblaue Evergreens - R. Whittaker
TTITLE10=Die goldenen Zeiten - R. Whittaker 
TTITLE11=Wie lang ist das schon her - R. Whittaker
TTITLE12=Ein langer Abschied - R. Whittaker
TTITLE13=Drei kleine Worte -  Roger Whittaker
TTITLE14=Ich kann ohne Country Music nicht leben
EXTD=
EXTT0=
EXTT1=
EXTT2=
EXTT3=
EXTT4=
EXTT5=
EXTT6=
EXTT7=
EXTT8=
EXTT9=
EXTT10=
EXTT11=
EXTT12=
EXTT13=
EXTT14=
PLAYORDER=
